<svg xmlns="http://www.w3.org/2000/svg" viewBox="0 0 893 472"><defs><style>.cls-1{opacity:0.47;}.cls-2{fill:gray;}.cls-3{font-size:12px;font-family:MyriadPro-Regular, Myriad Pro;}.cls-4{letter-spacing:-0.01em;}.cls-5{letter-spacing:-0.01em;}.cls-6{letter-spacing:0em;}.cls-7{letter-spacing:-0.01em;}.cls-8{letter-spacing:0.01em;}.cls-9{letter-spacing:-0.01em;}.cls-10{letter-spacing:0em;}.cls-11{letter-spacing:-0.01em;}.cls-12{letter-spacing:0em;}.cls-13{letter-spacing:0em;}.cls-14{letter-spacing:0em;}.cls-15{letter-spacing:-0.02em;}.cls-16{letter-spacing:0.02em;}.cls-17{letter-spacing:0em;}.cls-18{letter-spacing:0em;}.cls-19{letter-spacing:-0.01em;}.cls-20{letter-spacing:0em;}.cls-21{letter-spacing:-0.01em;}</style></defs><title>Fichier 1</title><g id="Calque_2" data-name="Calque 2"><g id="Calque_1-2" data-name="Calque 1"><g class="cls-1"><rect class="cls-2" x="2" y="2" width="889" height="468"/><path d="M889,4V468H4V4H889m4-4H0V472H893V0Z"/></g><text class="cls-3" transform="translate(107.05 97.57)"><tspan class="cls-4">L</tspan><tspan x="5.5" y="0">o</tspan><tspan class="cls-5" x="12.08" y="0">r</tspan><tspan x="15.89" y="0">em ipsum dolor sit ame</tspan><tspan class="cls-6" x="133.13" y="0">t</tspan><tspan x="137.06" y="0">, </tspan><tspan class="cls-7" x="142.09" y="0">c</tspan><tspan x="147.39" y="0">onse</tspan><tspan class="cls-8" x="171.41" y="0">c</tspan><tspan class="cls-9" x="176.94" y="0">t</tspan><tspan x="180.84" y="0">etuer adipiscing eli</tspan><tspan class="cls-6" x="275.41" y="0">t</tspan><tspan class="cls-10" x="279.34" y="0">, sed diam nonum</tspan><tspan class="cls-11" x="368.89" y="0">m</tspan><tspan x="378.74" y="0">y nibh euismod tincidu</tspan><tspan class="cls-12" x="493.53" y="0">n</tspan><tspan x="500.14" y="0">t ut lao</tspan><tspan class="cls-5" x="534.99" y="0">r</tspan><tspan x="538.79" y="0">eet dolo</tspan><tspan class="cls-5" x="580.11" y="0">r</tspan><tspan x="583.91" y="0">e ma</tspan><tspan class="cls-7" x="608.26" y="0">g</tspan><tspan x="614.89" y="0">na aliquam e</tspan><tspan class="cls-13" x="679.02" y="0">r</tspan><tspan class="cls-12" x="682.89" y="0">a</tspan><tspan x="688.62" y="0">t </tspan><tspan class="cls-5" x="0" y="14.4">v</tspan><tspan x="5.65" y="14.4">olutp</tspan><tspan class="cls-12" x="32.48" y="14.4">a</tspan><tspan class="cls-6" x="38.22" y="14.4">t</tspan><tspan x="42.15" y="14.4">. </tspan><tspan class="cls-14" x="47.18" y="14.4">U</tspan><tspan x="54.99" y="14.4">t wisi enim ad minim </tspan><tspan class="cls-5" x="161.22" y="14.4">v</tspan><tspan x="166.87" y="14.4">eniam, quis nostrud </tspan><tspan class="cls-6" x="268.46" y="14.4">e</tspan><tspan class="cls-15" x="274.44" y="14.4">x</tspan><tspan x="279.81" y="14.4">e</tspan><tspan class="cls-5" x="285.82" y="14.4">r</tspan><tspan x="289.63" y="14.4">ci t</tspan><tspan class="cls-12" x="304.33" y="14.4">a</tspan><tspan x="310.06" y="14.4">tion ullam</tspan><tspan class="cls-7" x="360.7" y="14.4">c</tspan><tspan x="366.01" y="14.4">o</tspan><tspan class="cls-14" x="372.59" y="14.4">r</tspan><tspan x="376.57" y="14.4">per suscipit lobo</tspan><tspan class="cls-16" x="459.16" y="14.4">r</tspan><tspan x="463.37" y="14.4">tis nisl ut aliquip </tspan><tspan class="cls-6" x="547.14" y="14.4">e</tspan><tspan x="553.12" y="14.4">x ea </tspan><tspan class="cls-9" x="575.56" y="14.4">c</tspan><tspan x="580.86" y="14.4">ommodo </tspan><tspan class="cls-9" x="629.95" y="14.4">c</tspan><tspan x="635.26" y="14.4">onsequ</tspan><tspan class="cls-12" x="672.64" y="14.4">a</tspan><tspan class="cls-17" x="678.37" y="14.4">t</tspan><tspan x="682.31" y="14.4">. </tspan><tspan class="cls-18" x="687.34" y="14.4">D</tspan><tspan x="695.36" y="14.4">uis </tspan><tspan x="0" y="28.8">au</tspan><tspan class="cls-7" x="12.4" y="28.8">t</tspan><tspan x="16.3" y="28.8">em </tspan><tspan class="cls-5" x="34.86" y="28.8">v</tspan><tspan x="40.51" y="28.8">el eum i</tspan><tspan class="cls-14" x="79.88" y="28.8">r</tspan><tspan x="83.85" y="28.8">iu</tspan><tspan class="cls-19" x="93.27" y="28.8">r</tspan><tspan x="97.08" y="28.8">e dolor in hend</tspan><tspan class="cls-5" x="172.99" y="28.8">r</tspan><tspan x="176.79" y="28.8">e</tspan><tspan class="cls-14" x="182.81" y="28.8">r</tspan><tspan x="186.78" y="28.8">it in vulput</tspan><tspan class="cls-12" x="240.74" y="28.8">a</tspan><tspan class="cls-7" x="246.48" y="28.8">t</tspan><tspan x="250.38" y="28.8">e </tspan><tspan class="cls-5" x="258.93" y="28.8">v</tspan><tspan x="264.58" y="28.8">elit esse molestie </tspan><tspan class="cls-7" x="352.35" y="28.8">c</tspan><tspan x="357.65" y="28.8">onsequ</tspan><tspan class="cls-20" x="395.03" y="28.8">a</tspan><tspan class="cls-6" x="400.77" y="28.8">t</tspan><tspan x="404.7" y="28.8">, </tspan><tspan class="cls-5" x="409.73" y="28.8">v</tspan><tspan x="415.38" y="28.8">el illum dolo</tspan><tspan class="cls-19" x="477.18" y="28.8">r</tspan><tspan x="480.99" y="28.8">e eu </tspan><tspan class="cls-11" x="504.71" y="28.8">f</tspan><tspan x="508.06" y="28.8">eu</tspan><tspan class="cls-7" x="520.68" y="28.8">g</tspan><tspan x="527.32" y="28.8">i</tspan><tspan class="cls-12" x="530.13" y="28.8">a</tspan><tspan x="535.86" y="28.8">t nulla facilisis </tspan><tspan class="cls-12" x="607.61" y="28.8">a</tspan><tspan x="613.34" y="28.8">t </tspan><tspan class="cls-5" x="619.86" y="28.8">v</tspan><tspan x="625.51" y="28.8">e</tspan><tspan class="cls-5" x="631.52" y="28.8">r</tspan><tspan x="635.33" y="28.8">o e</tspan><tspan class="cls-5" x="650.47" y="28.8">r</tspan><tspan x="654.27" y="28.8">os et </tspan><tspan x="0" y="43.2">a</tspan><tspan class="cls-7" x="5.78" y="43.2">c</tspan><tspan x="11.09" y="43.2">cumsan et ius</tspan><tspan class="cls-9" x="79.52" y="43.2">t</tspan><tspan x="83.42" y="43.2">o odio di</tspan><tspan class="cls-7" x="127.43" y="43.2">g</tspan><tspan x="134.06" y="43.2">nissim qui blandit p</tspan><tspan class="cls-21" x="232.14" y="43.2">r</tspan><tspan x="236" y="43.2">aese</tspan><tspan class="cls-12" x="258.56" y="43.2">n</tspan><tspan x="265.17" y="43.2">t lupt</tspan><tspan class="cls-20" x="291.93" y="43.2">a</tspan><tspan x="297.67" y="43.2">tum zz</tspan><tspan class="cls-14" x="331.07" y="43.2">r</tspan><tspan x="335.05" y="43.2">il delenit augue duis dolo</tspan><tspan class="cls-5" x="461.37" y="43.2">r</tspan><tspan x="465.17" y="43.2">e </tspan><tspan class="cls-7" x="473.73" y="43.2">t</tspan><tspan x="477.63" y="43.2">e </tspan><tspan class="cls-11" x="486.18" y="43.2">f</tspan><tspan x="489.53" y="43.2">eugait nulla facilisi.</tspan><tspan class="cls-4" x="0" y="57.6">L</tspan><tspan x="5.5" y="57.6">o</tspan><tspan class="cls-5" x="12.08" y="57.6">r</tspan><tspan x="15.89" y="57.6">em ipsum dolor sit ame</tspan><tspan class="cls-6" x="133.13" y="57.6">t</tspan><tspan x="137.06" y="57.6">, </tspan><tspan class="cls-7" x="142.09" y="57.6">c</tspan><tspan x="147.39" y="57.6">ons e</tspan><tspan class="cls-8" x="173.95" y="57.6">c</tspan><tspan class="cls-9" x="179.48" y="57.6">t</tspan><tspan x="183.38" y="57.6">etuer adipiscing eli</tspan><tspan class="cls-6" x="277.95" y="57.6">t</tspan><tspan class="cls-10" x="281.89" y="57.6">, sed diam nonum</tspan><tspan class="cls-11" x="371.43" y="57.6">m</tspan><tspan x="381.28" y="57.6">y nibh euismod tincidu</tspan><tspan class="cls-12" x="496.07" y="57.6">n</tspan><tspan x="502.68" y="57.6">t ut lao</tspan><tspan class="cls-5" x="537.53" y="57.6">r</tspan><tspan x="541.34" y="57.6">eet dolo</tspan><tspan class="cls-5" x="582.65" y="57.6">r</tspan><tspan x="586.46" y="57.6">e ma</tspan><tspan class="cls-7" x="610.8" y="57.6">g</tspan><tspan x="617.44" y="57.6">na aliquam e</tspan><tspan class="cls-13" x="681.57" y="57.6">r</tspan><tspan class="cls-12" x="685.43" y="57.6">a</tspan><tspan x="691.17" y="57.6">t </tspan><tspan class="cls-5" x="0" y="72">v</tspan><tspan x="5.65" y="72">olutp</tspan><tspan class="cls-12" x="32.48" y="72">a</tspan><tspan class="cls-6" x="38.22" y="72">t</tspan><tspan x="42.15" y="72">. </tspan><tspan class="cls-14" x="47.18" y="72">U</tspan><tspan x="54.99" y="72">t wisi enim ad minim </tspan><tspan class="cls-5" x="161.22" y="72">v</tspan><tspan x="166.87" y="72">eniam, quis nostrud </tspan><tspan class="cls-6" x="268.46" y="72">e</tspan><tspan class="cls-15" x="274.44" y="72">x</tspan><tspan x="279.81" y="72">e</tspan><tspan class="cls-5" x="285.82" y="72">r</tspan><tspan x="289.63" y="72">ci t</tspan><tspan class="cls-12" x="304.33" y="72">a</tspan><tspan x="310.06" y="72">tion ullam</tspan><tspan class="cls-7" x="360.7" y="72">c</tspan><tspan x="366.01" y="72">o</tspan><tspan class="cls-14" x="372.59" y="72">r</tspan><tspan x="376.57" y="72">per suscipit lobo</tspan><tspan class="cls-16" x="459.16" y="72">r</tspan><tspan x="463.37" y="72">tis nisl ut aliquip </tspan><tspan class="cls-6" x="547.14" y="72">e</tspan><tspan x="553.12" y="72">x ea </tspan><tspan class="cls-9" x="575.56" y="72">c</tspan><tspan x="580.86" y="72">ommodo </tspan><tspan class="cls-9" x="629.95" y="72">c</tspan><tspan x="635.26" y="72">onsequ</tspan><tspan class="cls-12" x="672.64" y="72">a</tspan><tspan class="cls-17" x="678.37" y="72">t</tspan><tspan x="682.31" y="72">.</tspan><tspan class="cls-4" x="0" y="86.4">L</tspan><tspan x="5.5" y="86.4">o</tspan><tspan class="cls-5" x="12.08" y="86.4">r</tspan><tspan x="15.89" y="86.4">em ipsum dolor sit ame</tspan><tspan class="cls-6" x="133.13" y="86.4">t</tspan><tspan x="137.06" y="86.4">, </tspan><tspan class="cls-7" x="142.09" y="86.4">c</tspan><tspan x="147.39" y="86.4">onse</tspan><tspan class="cls-8" x="171.41" y="86.4">c</tspan><tspan class="cls-9" x="176.94" y="86.4">t</tspan><tspan x="180.84" y="86.4">etuer adipiscing eli</tspan><tspan class="cls-6" x="275.41" y="86.4">t</tspan><tspan class="cls-10" x="279.34" y="86.4">, sed diam nonum</tspan><tspan class="cls-11" x="368.89" y="86.4">m</tspan><tspan x="378.74" y="86.4">y nibh euismod tincidu</tspan><tspan class="cls-12" x="493.53" y="86.4">n</tspan><tspan x="500.14" y="86.4">t ut lao</tspan><tspan class="cls-5" x="534.99" y="86.4">r</tspan><tspan x="538.79" y="86.4">eet dolo</tspan><tspan class="cls-5" x="580.11" y="86.4">r</tspan><tspan x="583.91" y="86.4">e ma</tspan><tspan class="cls-7" x="608.26" y="86.4">g</tspan><tspan x="614.89" y="86.4">na aliquam e</tspan><tspan class="cls-13" x="679.02" y="86.4">r</tspan><tspan class="cls-12" x="682.89" y="86.4">a</tspan><tspan x="688.62" y="86.4">t </tspan><tspan class="cls-5" x="0" y="100.8">v</tspan><tspan x="5.65" y="100.8">olutp</tspan><tspan class="cls-12" x="32.48" y="100.8">a</tspan><tspan class="cls-6" x="38.22" y="100.8">t</tspan><tspan x="42.15" y="100.8">. </tspan><tspan class="cls-14" x="47.18" y="100.8">U</tspan><tspan x="54.99" y="100.8">t wisi enim ad minim </tspan><tspan class="cls-5" x="161.22" y="100.8">v</tspan><tspan x="166.87" y="100.8">eniam, quis nostrud </tspan><tspan class="cls-6" x="268.46" y="100.8">e</tspan><tspan class="cls-15" x="274.44" y="100.8">x</tspan><tspan x="279.81" y="100.8">e</tspan><tspan class="cls-5" x="285.82" y="100.8">r</tspan><tspan x="289.63" y="100.8">ci t</tspan><tspan class="cls-12" x="304.33" y="100.8">a</tspan><tspan x="310.06" y="100.8">tion ullam</tspan><tspan class="cls-7" x="360.7" y="100.8">c</tspan><tspan x="366.01" y="100.8">o</tspan><tspan class="cls-14" x="372.59" y="100.8">r</tspan><tspan x="376.57" y="100.8">per suscipit lobo</tspan><tspan class="cls-16" x="459.16" y="100.8">r</tspan><tspan x="463.37" y="100.8">tis nisl ut aliquip </tspan><tspan class="cls-6" x="547.14" y="100.8">e</tspan><tspan x="553.12" y="100.8">x ea </tspan><tspan class="cls-9" x="575.56" y="100.8">c</tspan><tspan x="580.86" y="100.8">ommodo </tspan><tspan class="cls-9" x="629.95" y="100.8">c</tspan><tspan x="635.26" y="100.8">onsequ</tspan><tspan class="cls-12" x="672.64" y="100.8">a</tspan><tspan class="cls-17" x="678.37" y="100.8">t</tspan><tspan x="682.31" y="100.8">. </tspan><tspan class="cls-18" x="687.34" y="100.8">D</tspan><tspan x="695.36" y="100.8">uis </tspan><tspan x="0" y="115.2">au</tspan><tspan class="cls-7" x="12.4" y="115.2">t</tspan><tspan x="16.3" y="115.2">em </tspan><tspan class="cls-5" x="34.86" y="115.2">v</tspan><tspan x="40.51" y="115.2">el eum i</tspan><tspan class="cls-14" x="79.88" y="115.2">r</tspan><tspan x="83.85" y="115.2">iu</tspan><tspan class="cls-19" x="93.27" y="115.2">r</tspan><tspan x="97.08" y="115.2">e dolor in hend</tspan><tspan class="cls-5" x="172.99" y="115.2">r</tspan><tspan x="176.79" y="115.2">e</tspan><tspan class="cls-14" x="182.81" y="115.2">r</tspan><tspan x="186.78" y="115.2">it in vulput</tspan><tspan class="cls-12" x="240.74" y="115.2">a</tspan><tspan class="cls-7" x="246.48" y="115.2">t</tspan><tspan x="250.38" y="115.2">e </tspan><tspan class="cls-5" x="258.93" y="115.2">v</tspan><tspan x="264.58" y="115.2">elit esse molestie </tspan><tspan class="cls-7" x="352.35" y="115.2">c</tspan><tspan x="357.65" y="115.2">onsequ</tspan><tspan class="cls-20" x="395.03" y="115.2">a</tspan><tspan class="cls-6" x="400.77" y="115.2">t</tspan><tspan x="404.7" y="115.2">, </tspan><tspan class="cls-5" x="409.73" y="115.2">v</tspan><tspan x="415.38" y="115.2">el illum dolo</tspan><tspan class="cls-19" x="477.18" y="115.2">r</tspan><tspan x="480.99" y="115.2">e eu </tspan><tspan class="cls-11" x="504.71" y="115.2">f</tspan><tspan x="508.06" y="115.2">eu</tspan><tspan class="cls-7" x="520.68" y="115.2">g</tspan><tspan x="527.32" y="115.2">i</tspan><tspan class="cls-12" x="530.13" y="115.2">a</tspan><tspan x="535.86" y="115.2">t nulla facilisis </tspan><tspan class="cls-12" x="607.61" y="115.2">a</tspan><tspan x="613.34" y="115.2">t </tspan><tspan class="cls-5" x="619.86" y="115.2">v</tspan><tspan x="625.51" y="115.2">e</tspan><tspan class="cls-5" x="631.52" y="115.2">r</tspan><tspan x="635.33" y="115.2">o e</tspan><tspan class="cls-5" x="650.47" y="115.2">r</tspan><tspan x="654.27" y="115.2">os et </tspan><tspan x="0" y="129.6">a</tspan><tspan class="cls-7" x="5.78" y="129.6">c</tspan><tspan x="11.09" y="129.6">cumsan et ius</tspan><tspan class="cls-9" x="79.52" y="129.6">t</tspan><tspan x="83.42" y="129.6">o odio di</tspan><tspan class="cls-7" x="127.43" y="129.6">g</tspan><tspan x="134.06" y="129.6">nissim qui blandit p</tspan><tspan class="cls-21" x="232.14" y="129.6">r</tspan><tspan x="236" y="129.6">aese</tspan><tspan class="cls-12" x="258.56" y="129.6">n</tspan><tspan x="265.17" y="129.6">t lupt</tspan><tspan class="cls-20" x="291.93" y="129.6">a</tspan><tspan x="297.67" y="129.6">tum zz</tspan><tspan class="cls-14" x="331.07" y="129.6">r</tspan><tspan x="335.05" y="129.6">il delenit augue duis dolo</tspan><tspan class="cls-5" x="461.37" y="129.6">r</tspan><tspan x="465.17" y="129.6">e </tspan><tspan class="cls-7" x="473.73" y="129.6">t</tspan><tspan x="477.63" y="129.6">e </tspan><tspan class="cls-11" x="486.18" y="129.6">f</tspan><tspan x="489.53" y="129.6">eugait nulla facilisi.</tspan><tspan class="cls-4" x="0" y="144">L</tspan><tspan x="5.5" y="144">o</tspan><tspan class="cls-5" x="12.08" y="144">r</tspan><tspan x="15.89" y="144">em ipsum dolor sit ame</tspan><tspan class="cls-6" x="133.13" y="144">t</tspan><tspan x="137.06" y="144">, </tspan><tspan class="cls-7" x="142.09" y="144">c</tspan><tspan x="147.39" y="144">ons e</tspan><tspan class="cls-8" x="173.95" y="144">c</tspan><tspan class="cls-9" x="179.48" y="144">t</tspan><tspan x="183.38" y="144">etuer adipiscing eli</tspan><tspan class="cls-6" x="277.95" y="144">t</tspan><tspan class="cls-10" x="281.89" y="144">, sed diam nonum</tspan><tspan class="cls-11" x="371.43" y="144">m</tspan><tspan x="381.28" y="144">y nibh euismod tincidu</tspan><tspan class="cls-12" x="496.07" y="144">n</tspan><tspan x="502.68" y="144">t ut lao</tspan><tspan class="cls-5" x="537.53" y="144">r</tspan><tspan x="541.34" y="144">eet dolo</tspan><tspan class="cls-5" x="582.65" y="144">r</tspan><tspan x="586.46" y="144">e ma</tspan><tspan class="cls-7" x="610.8" y="144">g</tspan><tspan x="617.44" y="144">na aliquam e</tspan><tspan class="cls-13" x="681.57" y="144">r</tspan><tspan class="cls-12" x="685.43" y="144">a</tspan><tspan x="691.17" y="144">t </tspan><tspan class="cls-5" x="0" y="158.4">v</tspan><tspan x="5.65" y="158.4">olutp</tspan><tspan class="cls-12" x="32.48" y="158.4">a</tspan><tspan class="cls-6" x="38.22" y="158.4">t</tspan><tspan x="42.15" y="158.4">. </tspan><tspan class="cls-14" x="47.18" y="158.4">U</tspan><tspan x="54.99" y="158.4">t wisi enim ad minim </tspan><tspan class="cls-5" x="161.22" y="158.4">v</tspan><tspan x="166.87" y="158.4">eniam, quis nostrud </tspan><tspan class="cls-6" x="268.46" y="158.4">e</tspan><tspan class="cls-15" x="274.44" y="158.4">x</tspan><tspan x="279.81" y="158.4">e</tspan><tspan class="cls-5" x="285.82" y="158.4">r</tspan><tspan x="289.63" y="158.4">ci t</tspan><tspan class="cls-12" x="304.33" y="158.4">a</tspan><tspan x="310.06" y="158.4">tion ullam</tspan><tspan class="cls-7" x="360.7" y="158.4">c</tspan><tspan x="366.01" y="158.4">o</tspan><tspan class="cls-14" x="372.59" y="158.4">r</tspan><tspan x="376.57" y="158.4">per suscipit lobo</tspan><tspan class="cls-16" x="459.16" y="158.4">r</tspan><tspan x="463.37" y="158.4">tis nisl ut aliquip </tspan><tspan class="cls-6" x="547.14" y="158.4">e</tspan><tspan x="553.12" y="158.4">x ea </tspan><tspan class="cls-9" x="575.56" y="158.4">c</tspan><tspan x="580.86" y="158.4">ommodo </tspan><tspan class="cls-9" x="629.95" y="158.4">c</tspan><tspan x="635.26" y="158.4">onsequ</tspan><tspan class="cls-12" x="672.64" y="158.4">a</tspan><tspan class="cls-17" x="678.37" y="158.4">t</tspan><tspan x="682.31" y="158.4">.</tspan><tspan class="cls-4" x="0" y="172.8">L</tspan><tspan x="5.5" y="172.8">o</tspan><tspan class="cls-5" x="12.08" y="172.8">r</tspan><tspan x="15.89" y="172.8">em ipsum dolor sit ame</tspan><tspan class="cls-6" x="133.13" y="172.8">t</tspan><tspan x="137.06" y="172.8">, </tspan><tspan class="cls-7" x="142.09" y="172.8">c</tspan><tspan x="147.39" y="172.8">onse</tspan><tspan class="cls-8" x="171.41" y="172.8">c</tspan><tspan class="cls-9" x="176.94" y="172.8">t</tspan><tspan x="180.84" y="172.8">etuer adipiscing eli</tspan><tspan class="cls-6" x="275.41" y="172.8">t</tspan><tspan class="cls-10" x="279.34" y="172.8">, sed diam nonum</tspan><tspan class="cls-11" x="368.89" y="172.8">m</tspan><tspan x="378.74" y="172.8">y nibh euismod tincidu</tspan><tspan class="cls-12" x="493.53" y="172.8">n</tspan><tspan x="500.14" y="172.8">t ut lao</tspan><tspan class="cls-5" x="534.99" y="172.8">r</tspan><tspan x="538.79" y="172.8">eet dolo</tspan><tspan class="cls-5" x="580.11" y="172.8">r</tspan><tspan x="583.91" y="172.8">e ma</tspan><tspan class="cls-7" x="608.26" y="172.8">g</tspan><tspan x="614.89" y="172.8">na aliquam e</tspan><tspan class="cls-13" x="679.02" y="172.8">r</tspan><tspan class="cls-12" x="682.89" y="172.8">a</tspan><tspan x="688.62" y="172.8">t </tspan></text></g></g></svg>